<svg xmlns="http://www.w3.org/2000/svg" xmlns:xlink="http://www.w3.org/1999/xlink" xmlns:lucid="lucid" width="135" height="144"><g transform="translate(-827 -288)" lucid:page-tab-id="0_0"><path d="M0 0h1870.87v1322.83H0z" fill="#fff"/><path d="M840 405.72h34.23v5.76H840v-5.76zM908.57 405.72h34.23v5.76h-34.23v-5.76zM888.57 386.88h5.67v7.44h-5.67v-7.44zM900.22 397.08h-17.94c-2.9 0-5.37 2.88-5.37 5.76v11.4c0 2.88 2.28 5.76 5.38 5.76h17.94c2.9 0 5.46-2.88 5.46-5.76v-11.4c0-2.88-2.57-5.76-5.46-5.76zm-.2 17.16H882.9v-11.4H900v11.4z" stroke="#000" stroke-opacity="0" fill="#2a3282"/><path d="M904.24 300c-4.23 0-6.8 1.44-9.07 3.72l-8.56 9.72c-.6.6-1.75 1.08-2.36 1.08h-35.9c-4.63 0-8.34 3.72-8.34 8.28v57.48c0 4.56 3.7 8.28 8.35 8.28h86.52c4.53 0 8.24-3.72 8.24-8.28v-61.92c0-3.24-1.74-6.96-3.7-9.24l-5.67-5.4c-2.27-2.28-5.15-3.72-9.18-3.72h-20.3z" stroke="#000" stroke-opacity="0" fill="#2a3282"/><path d="M771.56 336c0-3.3 2.68-6 6-6h228c3.3 0 6 2.7 6 6v48c0 3.3-2.7 6-6 6h-228c-3.32 0-6-2.7-6-6z" stroke="#000" stroke-opacity="0" stroke-width="3" fill="#fff" fill-opacity="0"/><use xlink:href="#a" transform="matrix(1,0,0,1,776.5571107223194,335) translate(91.11111111111111 30.27777777777778)"/><defs><path fill="#fff" d="M510-715v189l-118-59H253l7 14v136h32l118-59v248l-118-59h-32v202l59 118H21l59-118v-494L21-715h489" id="b"/><path fill="#fff" d="M501-482l-119-59v-44h-31v482l59 118H112l59-118v-482h-30v44L22-482v-233h479v233" id="c"/><path fill="#fff" d="M256-395h134l11-22v-144l-12-24H248l8 17v173zm259 130H256v162l59 118H22l59-117v-495L22-715h493l56 111v227" id="d"/><path fill="#fff" d="M485-304v207L429 15H35v-189l118 59h169c20-20 11-70 13-109l-13-24-232-80-55-108v-167l56-112h374v189l-118-59H197c-16 19-17 73 0 93l233 80" id="e"/><g id="a"><use transform="matrix(0.022222222222222223,0,0,0.022222222222222223,0,0)" xlink:href="#b"/><use transform="matrix(0.022222222222222223,0,0,0.022222222222222223,11.622222222222222,0)" xlink:href="#c"/><use transform="matrix(0.022222222222222223,0,0,0.022222222222222223,23.244444444444444,0)" xlink:href="#d"/><use transform="matrix(0.022222222222222223,0,0,0.022222222222222223,36.266666666666666,0)" xlink:href="#e"/></g></defs></g></svg>